<?xml version="1.0" encoding="UTF-8" standalone="no"?>
<svg width="400px" height="248px" viewBox="0 0 400 248" version="1.1" xmlns="http://www.w3.org/2000/svg" xmlns:xlink="http://www.w3.org/1999/xlink" xmlns:sketch="http://www.bohemiancoding.com/sketch/ns">
    <title>Beaker Logo</title>
    <defs></defs>
    <g id="Page-1" stroke="none" stroke-width="1" fill="none" fill-rule="evenodd" sketch:type="MSPage">
        <g id="logo" sketch:type="MSLayerGroup">
            <path d="M3.72638436,238.762215 L4.16938111,237.237785 C4.5732899,235.921824 4.92508143,234.514658 5.27687296,233.13355 L5.35504886,233.13355 C5.71986971,234.501629 6.09771987,235.934853 6.47557003,237.237785 L6.91856678,238.762215 L3.72638436,238.762215 L3.72638436,238.762215 Z M8.36482085,243.869707 L10.7100977,243.869707 L6.65798046,231.42671 L4.06514658,231.42671 L0,243.869707 L2.26710098,243.869707 L3.23127036,240.508143 L7.40065147,240.508143 L8.36482085,243.869707 L8.36482085,243.869707 Z M15.1400651,243.869707 L18.5667752,243.869707 C22.2540717,243.869707 24.5211726,241.71987 24.5211726,237.589577 C24.5211726,233.485342 22.2540717,231.42671 18.4495114,231.42671 L15.1400651,231.42671 L15.1400651,243.869707 L15.1400651,243.869707 Z M17.3550489,242.071661 L17.3550489,233.211726 L18.3061889,233.211726 C20.8208469,233.211726 22.267101,234.540717 22.267101,237.589577 C22.267101,240.651466 20.8208469,242.084691 18.3061889,242.084691 L17.3550489,242.084691 L17.3550489,242.071661 L17.3550489,242.071661 Z M26.3452769,243.869707 L28.534202,243.869707 L28.534202,238.162866 C29.1074919,236.7557 29.9934853,236.247557 30.7361564,236.247557 C31.1400651,236.247557 31.3876221,236.299674 31.7003257,236.403909 L32.0781759,234.501629 C31.7915309,234.371336 31.4918567,234.306189 31.009772,234.306189 C30.019544,234.306189 29.029316,234.970684 28.3648208,236.19544 L28.286645,236.19544 L28.1302932,234.540717 L26.3192182,234.540717 L26.3192182,243.869707 L26.3452769,243.869707 L26.3452769,243.869707 Z M32.8729642,240.37785 C32.8729642,242.736156 33.7459283,244.091205 35.7394137,244.091205 C37.0162866,244.091205 37.9283388,243.465798 38.7491857,242.488599 L38.8013029,242.488599 L38.970684,243.856678 L40.7557003,243.856678 L40.7557003,234.527687 L38.5667752,234.527687 L38.5667752,240.925081 C37.8631922,241.837134 37.3159609,242.214984 36.495114,242.214984 C35.4918567,242.214984 35.0488599,241.641694 35.0488599,240.104235 L35.0488599,234.527687 L32.8599349,234.527687 L32.8599349,240.37785 L32.8729642,240.37785 L32.8729642,240.37785 Z M45.1986971,243.061889 C45.9543974,243.713355 46.7752443,244.091205 47.5960912,244.091205 C49.6677524,244.091205 51.5960912,242.241042 51.5960912,239.04886 C51.5960912,236.156352 50.2410423,234.29316 47.9218241,234.29316 C46.8925081,234.29316 45.8892508,234.840391 45.1074919,235.504886 L45.029316,235.504886 L44.8729642,234.514658 L43.0618893,234.514658 L43.0618893,247.543974 L45.2508143,247.543974 L45.2508143,244.612378 L45.1986971,243.061889 L45.1986971,243.061889 Z M45.2508143,241.511401 L45.2508143,237.159609 C45.9674267,236.456026 46.6188925,236.117264 47.3094463,236.117264 C48.7166124,236.117264 49.3289902,237.224756 49.3289902,239.087948 C49.3289902,241.198697 48.3778502,242.306189 47.1400651,242.306189 C46.5798046,242.28013 45.9413681,242.071661 45.2508143,241.511401 L45.2508143,241.511401 L45.2508143,241.511401 Z M52.6905537,241.355049 C52.6905537,242.996743 53.8371336,244.091205 55.465798,244.091205 C56.5732899,244.091205 57.52443,243.543974 58.3583062,242.840391 L58.4104235,242.840391 L58.5798046,243.869707 L60.3648208,243.869707 L60.3648208,238.332248 C60.3648208,235.726384 59.218241,234.29316 56.8859935,234.29316 C55.4006515,234.29316 54.0846906,234.86645 53.0684039,235.504886 L53.8631922,236.964169 C54.6840391,236.469055 55.5570033,236.052117 56.4820847,236.052117 C57.732899,236.052117 58.1498371,236.885993 58.1758958,237.876221 C54.3713355,238.306189 52.6905537,239.361564 52.6905537,241.355049 L52.6905537,241.355049 L52.6905537,241.355049 Z M54.8273616,241.185668 C54.8273616,240.247557 55.6612378,239.583062 58.1889251,239.270358 L58.1889251,241.368078 C57.4983713,242.019544 56.9120521,242.397394 56.1563518,242.397394 C55.3745928,242.384365 54.8273616,242.019544 54.8273616,241.185668 L54.8273616,241.185668 L54.8273616,241.185668 Z M62.5667752,241.472313 C62.5667752,243.087948 63.1400651,244.091205 64.7035831,244.091205 C65.2117264,244.091205 65.6026059,244.013029 65.8631922,243.895765 L65.5765472,242.254072 C65.4071661,242.29316 65.3289902,242.29316 65.237785,242.29316 C65.0032573,242.29316 64.7557003,242.09772 64.7557003,241.576547 L64.7557003,230.423453 L62.5667752,230.423453 L62.5667752,241.472313 L62.5667752,241.472313 Z M73.3550489,243.869707 L75.5570033,243.869707 L75.5570033,233.289902 L79.1270358,233.289902 L79.1270358,231.42671 L69.7459283,231.42671 L69.7459283,233.289902 L73.3420195,233.289902 L73.3420195,243.869707 L73.3550489,243.869707 L73.3550489,243.869707 Z M80.5211726,243.869707 L82.7100977,243.869707 L82.7100977,237.34202 C83.4918567,236.586319 84.0260586,236.18241 84.8469055,236.18241 C85.8762215,236.18241 86.3061889,236.7557 86.3061889,238.29316 L86.3061889,243.869707 L88.495114,243.869707 L88.495114,238.006515 C88.495114,235.648208 87.6221498,234.29316 85.6286645,234.29316 C84.3517915,234.29316 83.4267101,234.957655 82.6449511,235.700326 L82.723127,233.889251 L82.723127,230.423453 L80.5211726,230.423453 L80.5211726,243.869707 L80.5211726,243.869707 Z M90.0456026,239.205212 C90.0456026,242.29316 92.0651466,244.091205 94.6449511,244.091205 C95.8306189,244.091205 96.9511401,243.674267 97.8371336,243.087948 L97.0944625,241.71987 C96.4039088,242.162866 95.7263844,242.410423 94.9315961,242.410423 C93.4332248,242.410423 92.3648208,241.459283 92.1693811,239.765472 L98.1107492,239.765472 C98.1628664,239.530945 98.2019544,239.153094 98.2019544,238.736156 C98.2019544,236.130293 96.8729642,234.306189 94.3452769,234.306189 C92.1693811,234.29316 90.0456026,236.156352 90.0456026,239.205212 L90.0456026,239.205212 L90.0456026,239.205212 Z M92.1693811,238.371336 C92.3648208,236.807818 93.3159609,236 94.4104235,236 C95.6872964,236 96.3127036,236.899023 96.3127036,238.371336 L92.1693811,238.371336 L92.1693811,238.371336 Z M99.8306189,243.869707 L102.019544,243.869707 L102.019544,237.34202 C102.736156,236.560261 103.413681,236.18241 103.973941,236.18241 C104.964169,236.18241 105.420195,236.7557 105.420195,238.29316 L105.420195,243.869707 L107.609121,243.869707 L107.609121,237.34202 C108.325733,236.560261 108.977199,236.18241 109.563518,236.18241 C110.527687,236.18241 110.983713,236.7557 110.983713,238.29316 L110.983713,243.869707 L113.185668,243.869707 L113.185668,238.006515 C113.185668,235.648208 112.273616,234.29316 110.29316,234.29316 C109.107492,234.29316 108.18241,235.009772 107.283388,235.960912 C106.840391,234.918567 106.071661,234.29316 104.690554,234.29316 C103.530945,234.29316 102.618893,234.957655 101.837134,235.791531 L101.758958,235.791531 L101.602606,234.514658 L99.7915309,234.514658 L99.7915309,243.869707 L99.8306189,243.869707 L99.8306189,243.869707 Z M114.775244,239.205212 C114.775244,242.29316 116.794788,244.091205 119.374593,244.091205 C120.560261,244.091205 121.680782,243.674267 122.566775,243.087948 L121.824104,241.71987 C121.13355,242.162866 120.456026,242.410423 119.661238,242.410423 C118.162866,242.410423 117.094463,241.459283 116.899023,239.765472 L122.840391,239.765472 C122.892508,239.530945 122.931596,239.153094 122.931596,238.736156 C122.931596,236.130293 121.602606,234.306189 119.074919,234.306189 C116.885993,234.29316 114.775244,236.156352 114.775244,239.205212 L114.775244,239.205212 L114.775244,239.205212 Z M116.885993,238.371336 C117.081433,236.807818 118.032573,236 119.127036,236 C120.403909,236 121.029316,236.899023 121.029316,238.371336 L116.885993,238.371336 L116.885993,238.371336 Z M127.986971,243.869707 L129.71987,243.869707 L129.915309,242.918567 L129.967427,242.918567 C130.749186,243.674267 131.661238,244.104235 132.521173,244.104235 C134.592834,244.104235 136.521173,242.254072 136.521173,239.04886 C136.521173,236.18241 135.166124,234.306189 132.833876,234.306189 C131.882736,234.306189 130.918567,234.775244 130.136808,235.465798 L130.188925,233.90228 L130.188925,230.436482 L128,230.436482 L128,243.869707 L127.986971,243.869707 L127.986971,243.869707 Z M130.175896,241.511401 L130.175896,237.159609 C130.892508,236.456026 131.543974,236.117264 132.234528,236.117264 C133.641694,236.117264 134.254072,237.224756 134.254072,239.087948 C134.254072,241.198697 133.302932,242.306189 132.065147,242.306189 C131.504886,242.28013 130.840391,242.071661 130.175896,241.511401 L130.175896,241.511401 L130.175896,241.511401 Z M137.928339,245.811075 L137.52443,247.517915 C137.863192,247.635179 138.228013,247.713355 138.736156,247.713355 C140.76873,247.713355 141.745928,246.397394 142.527687,244.286645 L145.915309,234.527687 L143.80456,234.527687 L142.397394,239.114007 C142.162866,239.947883 141.928339,240.885993 141.693811,241.732899 L141.615635,241.732899 C141.32899,240.859935 141.068404,239.921824 140.794788,239.114007 L139.179153,234.527687 L136.95114,234.527687 L140.625407,243.752443 L140.456026,244.338762 C140.156352,245.276873 139.583062,245.941368 138.592834,245.941368 C138.371336,245.941368 138.09772,245.863192 137.928339,245.811075 L137.928339,245.811075 L137.928339,245.811075 Z M152.7557,238.762215 L153.198697,237.237785 C153.602606,235.921824 153.954397,234.514658 154.306189,233.13355 L154.384365,233.13355 C154.749186,234.501629 155.127036,235.934853 155.504886,237.237785 L155.947883,238.762215 L152.7557,238.762215 L152.7557,238.762215 Z M157.394137,243.869707 L159.739414,243.869707 L155.687296,231.42671 L153.094463,231.42671 L149.029316,243.869707 L151.296417,243.869707 L152.260586,240.508143 L156.429967,240.508143 L157.394137,243.869707 L157.394137,243.869707 Z M160.57329,243.869707 L162.762215,243.869707 L162.762215,237.34202 C163.478827,236.560261 164.156352,236.18241 164.716612,236.18241 C165.70684,236.18241 166.162866,236.7557 166.162866,238.29316 L166.162866,243.869707 L168.351792,243.869707 L168.351792,237.34202 C169.068404,236.560261 169.71987,236.18241 170.306189,236.18241 C171.270358,236.18241 171.726384,236.7557 171.726384,238.29316 L171.726384,243.869707 L173.928339,243.869707 L173.928339,238.006515 C173.928339,235.648208 173.016287,234.29316 171.035831,234.29316 C169.850163,234.29316 168.925081,235.009772 168.026059,235.960912 C167.583062,234.918567 166.814332,234.29316 165.433225,234.29316 C164.273616,234.29316 163.361564,234.957655 162.579805,235.791531 L162.501629,235.791531 L162.345277,234.514658 L160.534202,234.514658 L160.534202,243.869707 L160.57329,243.869707 L160.57329,243.869707 Z M175.726384,241.355049 C175.726384,242.996743 176.872964,244.091205 178.501629,244.091205 C179.609121,244.091205 180.560261,243.543974 181.394137,242.840391 L181.446254,242.840391 L181.615635,243.869707 L183.400651,243.869707 L183.400651,238.332248 C183.400651,235.726384 182.254072,234.29316 179.921824,234.29316 C178.436482,234.29316 177.120521,234.86645 176.104235,235.504886 L176.899023,236.964169 C177.71987,236.469055 178.592834,236.052117 179.517915,236.052117 C180.76873,236.052117 181.185668,236.885993 181.211726,237.876221 C177.407166,238.306189 175.726384,239.361564 175.726384,241.355049 L175.726384,241.355049 L175.726384,241.355049 Z M177.863192,241.185668 C177.863192,240.247557 178.697068,239.583062 181.224756,239.270358 L181.224756,241.368078 C180.534202,242.019544 179.947883,242.397394 179.192182,242.397394 C178.410423,242.384365 177.863192,242.019544 177.863192,241.185668 L177.863192,241.185668 L177.863192,241.185668 Z M184.859935,243.869707 L192.169381,243.869707 L192.169381,242.123779 L187.62215,242.123779 L192.013029,235.700326 L192.013029,234.540717 L185.355049,234.540717 L185.355049,236.273616 L189.276873,236.273616 L184.859935,242.697068 L184.859935,243.869707 L184.859935,243.869707 Z M192.7557,239.205212 C192.7557,242.29316 194.775244,244.091205 197.355049,244.091205 C198.540717,244.091205 199.661238,243.674267 200.547231,243.087948 L199.80456,241.71987 C199.114007,242.162866 198.436482,242.410423 197.641694,242.410423 C196.143322,242.410423 195.074919,241.459283 194.879479,239.765472 L200.820847,239.765472 C200.872964,239.530945 200.912052,239.153094 200.912052,238.736156 C200.912052,236.130293 199.583062,234.306189 197.055375,234.306189 C194.86645,234.29316 192.7557,236.156352 192.7557,239.205212 L192.7557,239.205212 L192.7557,239.205212 Z M194.86645,238.371336 C195.061889,236.807818 196.013029,236 197.107492,236 C198.384365,236 199.009772,236.899023 199.009772,238.371336 L194.86645,238.371336 L194.86645,238.371336 Z M201.928339,239.205212 C201.928339,242.29316 203.947883,244.091205 206.527687,244.091205 C207.713355,244.091205 208.833876,243.674267 209.71987,243.087948 L208.977199,241.71987 C208.286645,242.162866 207.609121,242.410423 206.814332,242.410423 C205.315961,242.410423 204.247557,241.459283 204.052117,239.765472 L209.993485,239.765472 C210.045603,239.530945 210.084691,239.153094 210.084691,238.736156 C210.084691,236.130293 208.7557,234.306189 206.228013,234.306189 C204.039088,234.29316 201.928339,236.156352 201.928339,239.205212 L201.928339,239.205212 L201.928339,239.205212 Z M204.039088,238.371336 C204.234528,236.807818 205.185668,236 206.28013,236 C207.557003,236 208.18241,236.899023 208.18241,238.371336 L204.039088,238.371336 L204.039088,238.371336 Z M215.296417,243.869707 L222.65798,243.869707 L222.65798,242.006515 L217.498371,242.006515 L217.498371,231.42671 L215.296417,231.42671 L215.296417,243.869707 L215.296417,243.869707 Z M223.739414,241.355049 C223.739414,242.996743 224.885993,244.091205 226.514658,244.091205 C227.62215,244.091205 228.57329,243.543974 229.407166,242.840391 L229.459283,242.840391 L229.628664,243.869707 L231.413681,243.869707 L231.413681,238.332248 C231.413681,235.726384 230.267101,234.29316 227.934853,234.29316 C226.449511,234.29316 225.13355,234.86645 224.117264,235.504886 L224.912052,236.964169 C225.732899,236.469055 226.605863,236.052117 227.530945,236.052117 C228.781759,236.052117 229.198697,236.885993 229.224756,237.876221 C225.420195,238.306189 223.739414,239.361564 223.739414,241.355049 L223.739414,241.355049 L223.739414,241.355049 Z M225.876221,241.185668 C225.876221,240.247557 226.710098,239.583062 229.237785,239.270358 L229.237785,241.368078 C228.547231,242.019544 227.960912,242.397394 227.205212,242.397394 C226.423453,242.384365 225.876221,242.019544 225.876221,241.185668 L225.876221,241.185668 L225.876221,241.185668 Z M233.615635,243.869707 L235.348534,243.869707 L235.543974,242.918567 L235.596091,242.918567 C236.37785,243.674267 237.289902,244.104235 238.149837,244.104235 C240.221498,244.104235 242.149837,242.254072 242.149837,239.04886 C242.149837,236.18241 240.794788,234.306189 238.462541,234.306189 C237.511401,234.306189 236.547231,234.775244 235.765472,235.465798 L235.81759,233.90228 L235.81759,230.436482 L233.615635,230.436482 L233.615635,243.869707 L233.615635,243.869707 Z M235.80456,241.511401 L235.80456,237.159609 C236.521173,236.456026 237.172638,236.117264 237.863192,236.117264 C239.270358,236.117264 239.882736,237.224756 239.882736,239.087948 C239.882736,241.198697 238.931596,242.306189 237.693811,242.306189 C237.13355,242.28013 236.469055,242.071661 235.80456,241.511401 L235.80456,241.511401 L235.80456,241.511401 Z M242.85342,242.801303 C243.765472,243.543974 245.120521,244.091205 246.397394,244.091205 C248.7557,244.091205 250.032573,242.801303 250.032573,241.198697 C250.032573,239.452769 248.625407,238.840391 247.348534,238.358306 C246.345277,237.993485 245.407166,237.693811 245.407166,236.964169 C245.407166,236.37785 245.850163,235.934853 246.775244,235.934853 C247.517915,235.934853 248.18241,236.260586 248.833876,236.729642 L249.837134,235.400651 C249.081433,234.814332 248.026059,234.28013 246.736156,234.28013 C244.638436,234.28013 243.335505,235.439739 243.335505,237.081433 C243.335505,238.644951 244.729642,239.348534 245.954397,239.80456 C246.944625,240.18241 247.947883,240.521173 247.947883,241.302932 C247.947883,241.954397 247.478827,242.423453 246.462541,242.423453 C245.511401,242.423453 244.716612,242.019544 243.869707,241.381107 L242.85342,242.801303 L242.85342,242.801303 Z" id="Shape" fill="#504E41" sketch:type="MSShapeGroup"></path>
            <path d="M8.45602606,108.143322 C3.40065147,108.143322 0.964169381,109.094463 0.964169381,112.234528 L0.964169381,175.557003 C0.964169381,181.967427 2.48859935,186.201954 11.0618893,179.2443 C26.1628664,166.723127 45.1726384,150.983713 59.4527687,139.153094 C71.5960912,129.081433 68.5081433,108.156352 28.1954397,108.156352 C18.0586319,108.143322 13.5114007,108.143322 8.45602606,108.143322 L8.45602606,108.143322 L8.45602606,108.143322 Z M30.5537459,159.543974 C25.8892508,163.218241 20.7035831,164.990228 20.7035831,157.159609 L20.7035831,121.081433 C20.7035831,117.34202 25.7850163,113.589577 32.2736156,113.589577 C38.762215,113.589577 45.8892508,120.482085 45.8892508,132.651466 C45.8892508,140.964169 47.8697068,145.198697 30.5537459,159.543974 L30.5537459,159.543974 L30.5537459,159.543974 Z M32.2345277,176.664495 C35.0488599,174.332248 37.8762215,171.986971 40.6644951,169.680782 C44.4039088,166.710098 52.0260586,168.938111 52.0260586,187.791531 C52.0260586,206.644951 43.9609121,212.299674 37.0423453,212.299674 C34.3973941,212.299674 31.1921824,212.19544 28.2345277,211.257329 C23.4527687,209.758958 19.3485342,206.110749 19.3485342,197.315961 C19.3485342,190.28013 25.2638436,182.449511 32.2345277,176.664495 L32.2345277,176.664495 L32.2345277,176.664495 Z M76.534202,186.436482 C76.534202,213.654723 47.218241,219.114007 38.4104235,219.114007 L5.73289902,219.114007 C0.351791531,219.114007 0.964169381,216.403909 0.964169381,210.944625 C0.964169381,197.745928 3.19218241,197.107492 12.7296417,189.289902 C22.6058632,181.107492 33.771987,171.856678 44.0781759,163.309446 C60.1433225,150.241042 76.534202,166.762215 76.534202,186.436482 L76.534202,186.436482 L76.534202,186.436482 Z M241.302932,154.006515 C259.465798,138.970684 266.267101,138.775244 269.889251,138.775244 C273.511401,138.775244 278.736156,141.90228 278.736156,147.62215 C278.736156,151.752443 277.785016,153.798046 260.781759,167.80456 C257.980456,170.214984 258.631922,172.169381 260.351792,176.885993 C274.29316,213.628664 290.319218,230.592834 294.397394,234.071661 C298.47557,237.550489 303.2443,236.7557 303.2443,240.19544 C303.2443,243.635179 298.29316,243.596091 293.029316,243.596091 C263.270358,243.596091 244.247557,193.550489 242.644951,188.442997 C241.042345,183.335505 239.830619,185.159609 238.019544,186.631922 C234.684039,189.029316 234.47557,189.980456 234.47557,193.889251 L234.47557,212.273616 C234.47557,214.110749 234.188925,219.087948 224.260586,219.087948 C214.332248,219.087948 214.723127,213.954397 214.723127,212.273616 C214.723127,204.899023 215.908795,204.938111 209.70684,210.084691 C206.006515,213.159609 198.736156,219.074919 191.583062,219.074919 C184.429967,219.074919 183.609121,211.830619 180.664495,211.830619 C177.71987,211.830619 174.241042,219.074919 162.996743,219.074919 C151.752443,219.074919 144.612378,212.807818 144.612378,202.241042 C144.612378,197.289902 141.055375,200.912052 136.456026,204.586319 C133.837134,206.684039 130.918567,208.664495 126.840391,212.052117 C113.90228,222.775244 79.9348534,224.729642 79.9348534,189.120521 C79.9348534,153.511401 107.374593,142.149837 116.703583,142.149837 C126.032573,142.149837 131.830619,146.67101 135.087948,150.319218 C138.345277,153.967427 138.397394,159.061889 134.058632,162.449511 C124.221498,170.605863 113.159609,179.765472 102.996743,188.19544 C105.237785,205.003257 116.547231,217.068404 133.628664,202.905537 C147.674267,191.257329 163.921824,177.798046 176.456026,167.42671 C181.511401,163.192182 180.703583,160.638436 180.703583,156.456026 C180.703583,152.273616 178.09772,146.918567 172.534202,146.918567 C161.172638,146.918567 162.084691,160.586319 162.996743,165.302932 C163.921824,170.019544 159.374593,169.941368 155.205212,166.423453 C153.589577,165.068404 151.986971,163.752443 150.410423,162.449511 C146.071661,159.061889 146.123779,153.967427 149.381107,150.319218 C152.638436,146.67101 158.436482,142.149837 167.765472,142.149837 C182.332248,142.149837 200.586319,144.872964 200.442997,168.026059 C200.37785,179.674267 200.442997,198.488599 200.442997,204.794788 C200.442997,213.941368 207.986971,208 210.710098,205.745928 C215.04886,202.058632 214.749186,201.550489 214.749186,197.302932 L214.749186,108.117264 C214.749186,104.547231 215.80456,101.993485 223.596091,101.993485 C231.387622,101.993485 234.488599,103.192182 234.488599,106.084691 L234.488599,151.700326 C234.488599,159.491857 237.980456,156.742671 241.302932,154.006515 L241.302932,154.006515 L241.302932,154.006515 Z M180.703583,172.820847 L180.703583,204.677524 C180.703583,207.387622 178.488599,210.801303 174.579805,210.801303 C170.67101,210.801303 163.687296,207.087948 163.687296,194.592834 C163.687296,180.7557 170.631922,175.713355 173.811075,173.159609 C181.14658,167.061889 180.703583,170.09772 180.703583,172.820847 L180.703583,172.820847 L180.703583,172.820847 Z M119.42671,171.061889 C115.596091,174.241042 111.726384,177.446254 107.908795,180.599349 C102.67101,184.716612 101.71987,182.175896 101.71987,178.254072 C101.71987,162.840391 110.449511,151.022801 118.058632,151.022801 C121.954397,151.022801 124.18241,155.387622 124.18241,160.560261 C124.19544,165.732899 123.296417,167.856678 119.42671,171.061889 L119.42671,171.061889 L119.42671,171.061889 Z M238.631922,159.752443 C241.550489,157.32899 244.781759,154.65798 248.19544,151.830619 C253.71987,147.283388 259.674267,145.498371 259.674267,155.80456 C259.674267,162.410423 258.29316,166.306189 253.355049,170.436482 C248.390879,174.605863 243.387622,178.697068 238.540717,182.710098 C236.76873,184.18241 234.47557,185.589577 234.47557,178.957655 L234.47557,167.387622 C234.488599,165.224756 234.345277,163.335505 238.631922,159.752443 L238.631922,159.752443 L238.631922,159.752443 Z M369.498371,154.553746 C365.094463,158.201954 364.521173,160.156352 364.521173,165.32899 L364.521173,211.62215 C364.521173,214.983713 364.599349,219.114007 354.306189,219.114007 C344.013029,219.114007 344.76873,213.224756 344.76873,206.85342 C344.76873,200.482085 345.172638,195.830619 343.400651,197.263844 C341.355049,198.931596 334.019544,205.107492 325.628664,212.078176 C312.690554,222.801303 278.723127,224.7557 278.723127,189.14658 C278.723127,153.537459 306.162866,142.175896 315.491857,142.175896 C324.820847,142.175896 330.618893,146.697068 333.876221,150.345277 C337.13355,153.993485 337.185668,159.087948 332.846906,162.47557 C323.009772,170.631922 311.947883,179.791531 301.785016,188.221498 C304.026059,205.029316 315.335505,217.094463 332.416938,202.931596 C336.104235,199.882736 339.934853,196.703583 343.80456,193.498371 C344.429967,192.95114 344.76873,192.130293 344.76873,188.482085 L344.76873,148.312704 C344.76873,143.491857 349.811075,141.498371 355.661238,141.498371 C361.511401,141.498371 364.508143,142.918567 364.508143,148.312704 C364.508143,153.693811 366.905537,153.211726 369.876221,150.697068 C382.814332,140.117264 394.618893,144.664495 397.876221,148.312704 C401.13355,151.960912 400.508143,159.100977 396.169381,162.488599 C394.605863,163.791531 392.990228,165.107492 391.374593,166.462541 C387.205212,169.980456 383.166124,170.123779 383.583062,165.34202 C385.263844,145.798046 375.478827,149.563518 369.498371,154.553746 L369.498371,154.553746 L369.498371,154.553746 Z M318.228013,171.061889 C314.397394,174.241042 310.527687,177.446254 306.710098,180.599349 C301.472313,184.716612 300.521173,182.175896 300.521173,178.254072 C300.521173,162.840391 309.250814,151.022801 316.859935,151.022801 C320.7557,151.022801 322.983713,155.387622 322.983713,160.560261 C322.996743,165.732899 322.09772,167.856678 318.228013,171.061889 L318.228013,171.061889 L318.228013,171.061889 Z" id="Shape" fill="#504E41" sketch:type="MSShapeGroup"></path>
            <path d="M201.472313,95.7263844 C200.925081,75.1530945 188.156352,62.9446254 176.859935,52.1563518 C169.70684,45.3289902 162.319218,38.8925081 158.879479,30.9576547 C157.876221,28.1954397 157.771987,30.3843648 157.680782,11.3355049 C157.680782,10.5798046 157.693811,12.3127036 157.693811,9.45928339 C157.693811,4.28664495 149.472313,0.0912052117 139.335505,0.0912052117 C129.198697,0.0912052117 120.977199,4.28664495 120.977199,9.45928339 C120.977199,10.267101 121.016287,10.5016287 121.016287,11.1921824 C121.185668,30.2540717 120.794788,28.1302932 119.81759,30.8925081 C116.364821,38.8664495 109.485342,45.3289902 102.201954,52.1693811 C90.47557,63.1921824 77.1726384,75.6742671 77.1726384,97.0684039 C77.1726384,113.667752 83.5309446,127.856678 95.5700326,138.110749 C106.814332,147.687296 122.358306,152.964169 139.335505,152.964169 C156.312704,152.964169 171.843648,147.687296 183.100977,138.110749 C195.140065,127.856678 201.498371,113.667752 201.498371,97.0684039 C201.498371,96.6254072 201.498371,96.1693811 201.472313,95.7263844 L201.472313,95.7263844 L201.472313,95.7263844 Z M139.348534,6.57980456 C145.90228,6.57980456 151.218241,7.88273616 151.218241,9.4723127 C151.218241,11.0749186 145.90228,12.3648208 139.348534,12.3648208 C132.794788,12.3648208 127.478827,11.0618893 127.478827,9.4723127 C127.478827,7.88273616 132.781759,6.57980456 139.348534,6.57980456 L139.348534,6.57980456 L139.348534,6.57980456 Z M162.605863,90.1628664 C147.921824,96.7947883 131.270358,104.312704 120.325733,99.6091205 L120.286645,99.7003257 C117.446254,98.3192182 114.553746,96.8469055 111.570033,95.218241 C99.1921824,88.4820847 90.3192182,86.2540717 84.534202,88.4429967 C87.4918567,74.8794788 97.1856678,65.7589577 106.605863,56.9120521 C114.045603,49.9283388 121.745928,42.6970684 125.71987,33.4983713 C127.283388,29.9022801 127.504886,27.0879479 127.504886,17.6547231 C127.504886,17.2247557 127.517915,17.3029316 127.517915,16.6644951 C130.710098,18.0325733 134.827362,18.8534202 139.322476,18.8534202 C143.895765,18.8534202 148.065147,18.0065147 151.283388,16.5993485 C151.283388,17.3420195 151.257329,17.4201954 151.257329,17.771987 C151.257329,25.9153094 151.387622,29.9413681 152.938111,33.52443 C156.912052,42.6970684 165.107492,49.8892508 172.403909,56.8599349 C180.052117,64.1693811 187.882736,71.6351792 192.039088,81.6547231 C184.690554,80.1824104 174.319218,84.8599349 162.605863,90.1628664 L162.605863,90.1628664 L162.605863,90.1628664 Z" id="Shape" fill="#504E41" sketch:type="MSShapeGroup"></path>
            <path d="M195.035831,95.9869707 C195.04886,96.3387622 194.892508,92.1302932 195.061889,97.0553746 C194.970684,102.410423 192.495114,106.553746 187.687296,109.381107 C179.166124,114.384365 161.576547,115.661238 136.586319,106.618893 C145.993485,104.742671 155.973941,100.234528 165.250814,96.0521173 C176.456026,90.9967427 188.039088,85.7589577 192.429967,88.5993485 C194.019544,89.6416938 194.905537,92.1302932 195.035831,95.9869707 L195.035831,95.9869707 L195.035831,95.9869707 Z" id="Shape" fill="#40BBC3" sketch:type="MSShapeGroup"></path>
            <path d="M92.2214984,124.964169 C91.2833876,123.335505 90.9576547,121.289902 92.1563518,119.856678 C92.8859935,118.983713 100.312704,111.791531 134.996743,129.368078 C148.7557,136.338762 159.387622,139.895765 167.947883,140.351792 C159.778502,144.312704 150.09772,146.514658 139.348534,146.514658 C118.553746,146.514658 101.745928,138.345277 92.2214984,124.964169 L92.2214984,124.964169 L92.2214984,124.964169 Z" id="Shape" fill="#A2D1D1" sketch:type="MSShapeGroup"></path>
            <path d="M186.631922,124.716612 C179.830619,133.71987 170.905537,140.325733 137.889251,123.596091 C122.86645,115.986971 96.2996743,104.833876 87.2052117,115.700326 C87.1921824,115.713355 87.1791531,115.739414 87.1661238,115.752443 C85.1986971,110.931596 84,105.654723 83.7003257,100.039088 C83.5570033,97.3420195 84.8208469,95.5439739 86.2019544,94.7361564 C87.8175896,93.8110749 93.2117264,92.5602606 108.482085,100.885993 C125.667752,110.241042 142.553746,116.416938 157.34202,118.723127 C161.771987,119.413681 165.967427,119.752443 169.863192,119.752443 C178.332248,119.752443 185.485342,118.136808 190.918567,114.957655 C191.322476,114.723127 191.713355,114.47557 192.091205,114.228013 C190.736156,117.993485 188.885993,121.498371 186.631922,124.716612 L186.631922,124.716612 L186.631922,124.716612 Z" id="Shape" fill="#C1E3D1" sketch:type="MSShapeGroup"></path>
        </g>
    </g>
</svg>
