<svg width="400" height="248" viewBox="0 0 400 248" xmlns="http://www.w3.org/2000/svg"><title>Beaker Logo</title><g fill="none" fill-rule="evenodd"><path d="M3.726 238.762l.443-1.524c.4-1.316.75-2.723 1.1-4.104h.08c.36 1.368.74 2.8 1.12 4.104l.44 1.524H3.72zm4.64 5.108h2.344l-4.052-12.443H4.065L0 243.87h2.267l.964-3.362H7.4l.965 3.362zm6.774 0h3.427c3.687 0 5.954-2.15 5.954-6.28 0-4.105-2.26-6.163-6.07-6.163h-3.31v12.443zm2.215-1.798v-8.86h.95c2.516 0 3.962 1.33 3.962 4.378 0 3.06-1.446 4.495-3.96 4.495h-.952v-.013zm8.99 1.798h2.19v-5.707c.572-1.407 1.458-1.915 2.2-1.915.405 0 .653.052.965.156l.378-1.902c-.286-.13-.586-.196-1.068-.196-.99 0-1.98.665-2.645 1.89h-.078l-.157-1.655h-1.81v9.33h.025zm6.528-3.492c0 2.358.873 3.713 2.866 3.713 1.27 0 2.18-.62 3.01-1.6h.05l.17 1.37h1.78v-9.33h-2.19v6.4c-.707.91-1.25 1.29-2.07 1.29-1.008 0-1.45-.57-1.45-2.11v-5.572h-2.19v5.85h.012zm12.326 2.684c.75.65 1.57 1.03 2.39 1.03 2.07 0 4-1.85 4-5.043 0-2.9-1.36-4.76-3.678-4.76-1.03 0-2.033.54-2.815 1.21h-.078l-.158-.99h-1.81v13.03h2.19V244.6l-.05-1.55zm.05-1.55v-4.352c.71-.704 1.37-1.043 2.06-1.043 1.4 0 2.02 1.108 2.02 2.97 0 2.112-.96 3.22-2.19 3.22-.56-.027-1.2-.235-1.89-.796zm7.44-.157c0 1.642 1.14 2.736 2.77 2.736 1.103 0 2.06-.54 2.89-1.25h.05l.17 1.03h1.784v-5.53c0-2.604-1.147-4.04-3.48-4.04-1.484 0-2.8.576-3.817 1.215l.795 1.46c.82-.496 1.692-.913 2.62-.913 1.25 0 1.665.834 1.69 1.824-3.804.43-5.484 1.486-5.484 3.48zm2.13-.17c0-.937.83-1.602 3.36-1.915v2.098c-.69.652-1.28 1.03-2.035 1.03-.78-.014-1.33-.378-1.33-1.212zm7.74.287c0 1.616.57 2.62 2.134 2.62.51 0 .9-.08 1.16-.196l-.287-1.642c-.17.04-.248.04-.34.04-.234 0-.48-.196-.48-.717v-11.154h-2.19v11.05zm10.79 2.398h2.2v-10.58h3.57v-1.863h-9.38v1.863h3.593v10.58h.013zm7.162 0h2.19v-6.528c.78-.756 1.315-1.16 2.136-1.16 1.03 0 1.46.574 1.46 2.11v5.578h2.19v-5.863c0-2.36-.87-3.714-2.866-3.714-1.28 0-2.204.665-2.986 1.407l.075-1.81v-3.467h-2.2v13.447zm9.525-4.665c0 3.088 2.02 4.886 4.6 4.886 1.185 0 2.305-.41 3.19-1l-.74-1.37c-.69.45-1.37.69-2.16.69-1.5 0-2.57-.95-2.765-2.64h5.94c.052-.23.09-.61.09-1.03 0-2.6-1.33-4.43-3.856-4.43-2.174-.01-4.3 1.85-4.3 4.9zm2.123-.834c.195-1.56 1.146-2.37 2.24-2.37 1.277 0 1.903.9 1.903 2.37h-4.14zm7.66 5.5h2.19v-6.52c.716-.78 1.394-1.16 1.954-1.16.99 0 1.446.576 1.446 2.11v5.58h2.19v-6.527c.715-.782 1.366-1.16 1.953-1.16.963 0 1.42.574 1.42 2.11v5.578h2.2v-5.86c0-2.36-.91-3.714-2.892-3.714-1.185 0-2.11.717-3.01 1.668-.442-1.04-1.21-1.666-2.59-1.666-1.16 0-2.07.666-2.85 1.5h-.08l-.16-1.277h-1.81v9.356h.04zm14.945-4.66c0 3.09 2.02 4.89 4.6 4.89 1.183 0 2.304-.415 3.19-1l-.743-1.368c-.69.443-1.368.69-2.163.69-1.498 0-2.567-.95-2.76-2.645h5.94c.052-.233.09-.61.09-1.03 0-2.604-1.33-4.43-3.857-4.43-2.19-.01-4.3 1.85-4.3 4.9zm2.11-.83c.194-1.56 1.146-2.37 2.24-2.37 1.277 0 1.902.9 1.902 2.37h-4.145zm11.1 5.5h1.733l.196-.95h.052c.78.755 1.693 1.185 2.553 1.185 2.073 0 4-1.85 4-5.055 0-2.868-1.354-4.744-3.686-4.744-.95 0-1.914.47-2.696 1.16l.05-1.563v-3.466H128v13.433h-.013zm2.19-2.36v-4.35c.716-.703 1.367-1.042 2.06-1.042 1.405 0 2.02 1.108 2.02 2.97 0 2.11-.954 3.22-2.19 3.22-.56-.027-1.227-.235-1.89-.796zm7.75 4.3l-.403 1.71c.34.117.704.195 1.212.195 2.032 0 3.01-1.316 3.79-3.426l3.388-9.76h-2.11l-1.408 4.585c-.234.832-.47 1.77-.703 2.62h-.076c-.288-.876-.55-1.814-.82-2.62l-1.618-4.588h-2.23l3.675 9.224-.17.587c-.3.94-.87 1.6-1.86 1.6-.22 0-.493-.075-.663-.13zm14.83-7.05l.442-1.522c.402-1.315.753-2.722 1.105-4.103h.077c.363 1.368.74 2.8 1.12 4.104l.442 1.524h-3.19zm4.637 5.11h2.345l-4.054-12.443h-2.594l-4.068 12.443h2.267l.965-3.363h4.17l.963 3.363zm3.18 0h2.19v-6.53c.716-.782 1.393-1.16 1.954-1.16.99 0 1.445.574 1.445 2.11v5.578h2.19v-6.528c.718-.784 1.37-1.16 1.956-1.16.964 0 1.42.572 1.42 2.11v5.576h2.202v-5.863c0-2.36-.913-3.714-2.893-3.714-1.184 0-2.11.714-3.01 1.665-.44-1.04-1.21-1.667-2.59-1.667-1.16 0-2.07.663-2.85 1.5h-.08l-.16-1.28h-1.81v9.354h.04zm15.152-2.515c0 1.64 1.146 2.736 2.775 2.736 1.106 0 2.06-.546 2.89-1.25h.053l.17 1.03h1.784v-5.54c0-2.604-1.148-4.04-3.48-4.04-1.486 0-2.8.576-3.818 1.215l.794 1.46c.82-.496 1.692-.913 2.617-.913 1.25 0 1.668.836 1.694 1.826-3.805.43-5.486 1.486-5.486 3.48zm2.136-.17c0-.937.833-1.602 3.36-1.915v2.097c-.69.653-1.276 1.03-2.032 1.03-.78-.013-1.33-.377-1.33-1.21zm6.996 2.685h7.31v-1.747h-4.55l4.39-6.423v-1.16h-6.658v1.733h3.923l-4.416 6.423v1.174zm7.893-4.666c0 3.086 2.02 4.884 4.6 4.884 1.185 0 2.305-.416 3.19-1.002l-.74-1.367c-.69.44-1.37.69-2.164.69-1.5 0-2.565-.95-2.76-2.647h5.94c.052-.233.09-.61.09-1.03 0-2.604-1.33-4.43-3.856-4.43-2.19-.01-4.3 1.85-4.3 4.9zm2.11-.836c.196-1.562 1.15-2.37 2.24-2.37 1.28 0 1.904.9 1.904 2.37h-4.146zm7.062.835c0 3.087 2.02 4.885 4.6 4.885 1.186 0 2.307-.416 3.193-1.002l-.745-1.367c-.69.44-1.37.69-2.163.69-1.5 0-2.566-.95-2.762-2.647h5.94c.054-.235.093-.613.093-1.03 0-2.606-1.33-4.43-3.857-4.43-2.19-.013-4.3 1.85-4.3 4.9zm2.11-.835c.198-1.562 1.15-2.37 2.243-2.37 1.275 0 1.9.9 1.9 2.37h-4.143zm11.26 5.5h7.362v-1.863h-5.16v-10.58h-2.203v12.446zm8.443-2.515c0 1.64 1.145 2.733 2.774 2.733 1.106 0 2.057-.546 2.89-1.25h.053l.17 1.03h1.786v-5.538c0-2.606-1.147-4.04-3.48-4.04-1.484 0-2.8.574-3.817 1.213l.795 1.46c.82-.495 1.69-.912 2.62-.912 1.25 0 1.664.834 1.69 1.824-3.806.43-5.487 1.49-5.487 3.48zm2.135-.17c0-.94.834-1.605 3.36-1.918v2.1c-.69.652-1.275 1.03-2.03 1.03-.784-.014-1.33-.378-1.33-1.21zm7.74 2.682h1.733l.194-.95h.054c.785.755 1.697 1.185 2.557 1.185 2.07 0 4-1.85 4-5.056 0-2.868-1.356-4.744-3.688-4.744-.956 0-1.92.47-2.7 1.16l.05-1.567v-3.464h-2.2v13.43zm2.19-2.36v-4.35c.715-.703 1.367-1.042 2.057-1.042 1.41 0 2.02 1.11 2.02 2.97 0 2.115-.95 3.22-2.19 3.22-.56-.024-1.222-.232-1.886-.793zm7.047 1.29c.914.745 2.27 1.29 3.546 1.29 2.36 0 3.637-1.29 3.637-2.89 0-1.746-1.41-2.36-2.684-2.84-1.006-.365-1.944-.664-1.944-1.394 0-.584.442-1.03 1.367-1.03.742 0 1.41.33 2.06.798l1-1.33c-.754-.586-1.81-1.12-3.1-1.12-2.1 0-3.4 1.16-3.4 2.8 0 1.565 1.395 2.27 2.62 2.725.99.373 1.995.71 1.995 1.494 0 .65-.47 1.12-1.486 1.12-.95 0-1.746-.403-2.593-1.042l-1.016 1.42z" fill="#504E41"/><path d="M8.456 108.143c-5.055 0-7.492.95-7.492 4.092v63.322c0 6.41 1.525 10.645 10.098 3.687 15.1-12.52 34.11-28.26 48.39-40.09 12.144-10.073 9.056-30.998-31.257-30.998-10.136-.013-14.684-.013-19.74-.013zm22.098 51.4c-4.665 3.675-9.85 5.447-9.85-2.383v-36.08c0-3.738 5.08-7.49 11.57-7.49 6.488 0 13.615 6.892 13.615 19.06 0 8.314 1.98 12.55-15.34 26.894zm1.68 17.12c2.815-2.33 5.642-4.676 8.43-6.982 3.74-2.97 11.362-.74 11.362 18.12 0 18.855-8.065 24.51-14.984 24.51-2.645 0-5.85-.104-8.807-1.042-4.782-1.497-8.886-5.145-8.886-13.94 0-7.036 5.91-14.866 12.88-20.652zm44.3 9.773c0 27.22-29.316 32.678-38.124 32.678H5.733c-5.38 0-4.77-2.71-4.77-8.17 0-13.198 2.23-13.837 11.767-21.654 9.876-8.183 21.042-17.433 31.348-25.98 16.065-13.07 32.456 3.452 32.456 23.126zm164.77-32.43c18.162-15.035 24.963-15.23 28.585-15.23 3.62 0 8.84 3.126 8.84 8.846 0 4.13-.95 6.176-17.958 20.183-2.8 2.41-2.15 4.364-.43 9.08 13.94 36.744 29.967 53.708 34.045 57.187 4.08 3.478 8.847 2.684 8.847 6.123 0 3.44-4.95 3.4-10.216 3.4-29.76 0-48.78-50.045-50.385-55.152-1.604-5.107-2.815-3.283-4.626-1.81-3.335 2.396-3.543 3.347-3.543 7.256v18.38c0 1.83-.286 6.81-10.214 6.81-9.93 0-9.54-5.136-9.54-6.816 0-7.375 1.187-7.336-5.015-2.19-3.7 3.076-10.97 8.99-18.124 8.99-7.152 0-7.973-7.243-10.92-7.243-2.942 0-6.42 7.245-17.665 7.245s-18.383-6.267-18.383-16.834c0-4.95-3.557-1.326-8.156 2.348-2.62 2.1-5.536 4.08-9.615 7.466-12.94 10.724-46.906 12.68-46.906-22.93s27.44-46.97 36.77-46.97c9.33 0 15.125 4.52 18.382 8.17 3.26 3.65 3.31 8.743-1.03 12.13-9.835 8.157-20.896 17.316-31.06 25.746 2.24 16.808 13.55 28.873 30.63 14.71 14.048-11.648 30.296-25.107 42.83-35.478 5.055-4.238 4.248-6.79 4.248-10.97 0-4.186-2.606-9.54-8.17-9.54-11.36 0-10.45 13.665-9.537 18.382.927 4.717-3.62 4.638-7.79 1.12-1.613-1.355-3.216-2.67-4.793-3.973-4.34-3.39-4.288-8.483-1.03-12.13 3.256-3.65 9.054-8.17 18.383-8.17 14.567 0 32.82 2.723 32.68 25.876-.067 11.646 0 30.46 0 36.77 0 9.143 7.542 3.202 10.265.95 4.34-3.69 4.04-4.198 4.04-8.445v-89.18c0-3.57 1.054-6.125 8.845-6.125 7.793 0 10.894 1.2 10.894 4.09v45.62c0 7.792 3.49 5.043 6.815 2.307zm-60.6 18.815v31.86c0 2.71-2.215 6.13-6.124 6.13-3.91 0-10.893-3.71-10.893-16.206 0-13.837 6.945-18.88 10.124-21.433 7.34-6.1 6.9-3.062 6.9-.34zm-61.277-1.75c-3.83 3.18-7.7 6.386-11.518 9.54-5.24 4.117-6.19 1.576-6.19-2.346 0-15.414 8.73-27.23 16.34-27.23 3.89 0 6.12 4.364 6.12 9.536.01 5.173-.89 7.297-4.76 10.502zm119.205-11.31c2.918-2.42 6.15-5.092 9.563-7.92 5.525-4.55 11.48-6.332 11.48 3.975 0 6.605-1.382 10.5-6.32 14.63-4.964 4.17-9.967 8.26-14.814 12.275-1.77 1.472-4.06 2.88-4.06-3.75V167.4c.02-2.165-.13-4.054 4.16-7.638zm130.866-5.2c-4.404 3.65-4.977 5.6-4.977 10.778v46.293c0 3.36.08 7.49-10.21 7.49s-9.53-5.89-9.53-12.26c0-6.372.403-11.023-1.37-9.59-2.045 1.668-9.38 7.84-17.77 14.814-12.94 10.723-46.907 12.678-46.907-22.93 0-35.61 27.44-46.972 36.77-46.972 9.328 0 15.126 4.52 18.383 8.17 3.258 3.65 3.31 8.745-1.03 12.13-9.836 8.16-20.9 17.32-31.06 25.748 2.24 16.81 13.55 28.875 30.63 14.713 3.688-3.05 7.52-6.23 11.39-9.436.624-.547.963-1.37.963-5.016v-40.17c0-4.82 5.04-6.814 10.89-6.814 5.85 0 8.846 1.42 8.846 6.814 0 5.38 2.396 4.9 5.366 2.383 12.938-10.58 24.743-6.035 28-2.386 3.258 3.647 2.63 10.787-1.707 14.175-1.564 1.3-3.18 2.616-4.795 3.972-4.17 3.517-8.21 3.66-7.792-1.12 1.68-19.545-8.1-15.78-14.082-10.79zm-51.27 16.51c-3.83 3.18-7.7 6.385-11.518 9.538-5.238 4.118-6.19 1.577-6.19-2.345 0-15.415 8.73-27.23 16.34-27.23 3.896 0 6.124 4.363 6.124 9.535.013 5.174-.886 7.298-4.756 10.503z" fill="#504E41"/><path d="M201.472 95.726c-.547-20.573-13.316-32.78-24.612-43.57-7.153-6.827-14.54-13.263-17.98-21.198-1.004-2.763-1.108-.574-1.2-19.622 0-.756.014.977.014-1.877 0-5.18-8.222-9.37-18.358-9.37-10.137 0-18.36 4.19-18.36 9.37 0 .8.04 1.04.04 1.73.17 19.06-.22 16.94-1.198 19.7-3.453 7.97-10.333 14.43-17.616 21.27-11.726 11.02-25.03 23.503-25.03 44.9 0 16.6 6.36 30.79 18.398 41.04 11.244 9.577 26.788 14.854 43.766 14.854 16.977 0 32.508-5.277 43.765-14.853 12.04-10.25 18.4-24.44 18.4-41.04 0-.442 0-.9-.02-1.34zM139.35 6.58c6.552 0 11.868 1.303 11.868 2.892 0 1.603-5.316 2.893-11.87 2.893-6.553 0-11.87-1.303-11.87-2.893 0-1.59 5.304-2.892 11.87-2.892zm23.256 83.583c-14.684 6.632-31.336 14.15-42.28 9.446l-.04.09c-2.84-1.38-5.732-2.86-8.716-4.49-12.378-6.738-21.25-8.966-27.036-6.777 2.958-13.564 12.652-22.684 22.072-31.53 7.44-6.985 15.14-14.216 19.114-23.415 1.563-3.596 1.785-6.41 1.785-15.843 0-.43.013-.353.013-.99 3.192 1.367 7.31 2.187 11.804 2.187 4.574 0 8.743-.844 11.96-2.252 0 .742-.025.82-.025 1.172 0 8.142.13 12.17 1.68 15.75 3.975 9.174 12.17 16.366 19.467 23.337 7.648 7.31 15.48 14.775 19.635 24.795-7.35-1.474-17.72 3.204-29.44 8.507z" fill="#504E41"/><path d="M195.036 95.987c.013.352-.143-3.857.026 1.068-.09 5.355-2.567 9.5-7.375 12.326-8.52 5.01-26.11 6.28-51.1-2.76 9.406-1.87 19.387-6.38 28.664-10.56 11.21-5.06 22.79-10.3 27.18-7.46 1.59 1.046 2.48 3.53 2.61 7.39z" fill="#40BBC3"/><path d="M92.22 124.964c-.937-1.628-1.262-3.674-.064-5.107.73-.873 8.157-8.065 42.84 9.51 13.76 6.972 24.392 10.53 32.952 10.985-8.17 3.96-17.85 6.163-28.6 6.163-20.794 0-37.602-8.17-47.127-21.55z" fill="#A2D1D1"/><path d="M186.632 124.717c-6.8 9.003-15.726 15.61-48.743-1.12-15.03-7.61-41.59-18.763-50.69-7.897-.018.013-.03.04-.04.052-1.96-4.82-3.16-10.097-3.46-15.712-.15-2.698 1.12-4.496 2.5-5.304 1.612-.925 7.01-2.176 22.28 6.15 17.182 9.355 34.07 15.53 48.86 17.837 4.43.69 8.62 1.03 12.52 1.03 8.47 0 15.62-1.616 21.053-4.795.4-.235.79-.482 1.17-.73-1.358 3.765-3.208 7.27-5.46 10.49z" fill="#C1E3D1"/></g></svg>