<?xml version="1.0" encoding="utf-8"?>
<!-- Generator: Adobe Illustrator 18.1.1, SVG Export Plug-In . SVG Version: 6.00 Build 0)  -->
<!DOCTYPE svg PUBLIC "-//W3C//DTD SVG 1.1//EN" "http://www.w3.org/Graphics/SVG/1.1/DTD/svg11.dtd">
<svg version="1.1" id="Layer_1" xmlns="http://www.w3.org/2000/svg" xmlns:xlink="http://www.w3.org/1999/xlink" x="0px" y="0px"
	 viewBox="0 0 120 60" enable-background="new 0 0 120 60" xml:space="preserve">
<g>
	<path fill="#010202" d="M20.9,2.7c0.8-0.4,1.8-0.2,2.7,0.1c0.5,0.1,0.8,0.5,1.2,0.8C25.6,4.2,26.2,5,26.6,6
		c0.5,1.3,0.9,2.7,0.8,4.1c-0.1,0.7,0.1,1.5,0,2.2c-0.1,0.7-0.4,1.4-0.5,2.1c-0.1,0.5-0.4,0.9-0.6,1.4c0,0-0.1,0-0.2,0
		c-0.3-1-0.5-2.1-1-3.1c-0.3-0.6-0.6-1.1-1-1.7c-0.6-0.9-1.2-1.8-2-2.4c-0.6-0.4-1.2-0.9-1.8-1.3c-0.6-0.6-0.8-1.5-0.9-2.3
		C19.5,4,20,3.1,20.9,2.7L20.9,2.7z"/>
	<path fill="#010202" d="M11,8.2c0.7-0.2,1.5-0.5,2.2-0.3c1.8,0.3,3.5,0.8,5.2,1.6c1.5,0.8,2.8,2,4,3.3c1.6,1.4,2.4,3.3,3.3,5.2
		c0.3,0.6,0.4,1.2,0.7,1.7c-0.1,0.1-0.2,0.1-0.3,0.2c-1-1.6-2.4-2.9-4-3.9c-1.2-0.6-2.5-0.9-3.9-1.1c-1.1,0-2.1,0.2-3.1,0.4
		c-0.9,0.3-1.8,0.7-2.8,1.1c-0.5,0.1-1,0.2-1.6,0.3c-0.7,0.1-1.3-0.3-1.8-0.6c-0.8-0.5-1.2-1.5-1.5-2.4c-0.1-0.7-0.1-1.5,0-2.2
		c0.3-1.1,1.1-2,2.1-2.5C10,8.7,10.4,8.3,11,8.2L11,8.2z"/>
	<path fill="#010202" d="M104.9,20.6c-0.6,0.6-1.3,1.3-2.3,1.4c-0.6,0-1.3-0.1-1.7-0.6c-0.4-0.5-0.7-1.1-0.6-1.7
		c0.5-0.4,1.1-0.7,1.6-1.1c0.7-0.6,1.4-1.2,1.9-2c0.5-0.8,1.1-1.5,1.3-2.5c0.2-0.8,0.2-1.6-0.1-2.4c-0.5-0.8-1.2-1.5-2.2-1.7
		c-1.2-0.1-2.4,0.3-3.4,0.7c-0.9,0.5-1.7,1.4-2,2.4c-0.3,0.7-0.5,1.4-0.6,2.1c-0.4,1.4-0.5,2.9-0.6,4.3c0.1,0.6,0.1,1.2,0.3,1.8
		c-0.7,1-1.9,2-3.2,2c-0.5,0-1,0.1-1.5-0.2c-0.8-0.5-1.2-1.5-0.8-2.4c0.4-0.4,0.9-0.6,1.3-0.9c1.5-1.2,2.8-2.7,3.5-4.4
		c0.2-0.7,0.3-1.6,0.1-2.3c-0.2-0.6-0.7-1-1.3-1.3c-0.7-0.3-1.6-0.2-2.3-0.1c-1.5,0.1-2.7,1.2-3.6,2.3c-0.6,0.8-0.9,1.9-1.3,2.9
		c-0.2,0.6-0.2,1.3-0.2,1.9c-0.1,1,0,2,0.2,3c0.1,0.9,0.4,1.7,0.8,2.5c0.4,0.7,1.1,1.1,1.7,1.5c0.2,0.1,0.5,0.2,0.8,0.2
		c0.7-0.1,1.5-0.1,2.2-0.4c0.9-0.4,1.7-0.9,2.5-1.4c0.6-0.5,1.2-1,1.7-1.6c0.3,0.4,0.7,0.6,1.1,0.8c0.5,0.3,1,0.6,1.6,0.7
		c1.1,0.2,2.2,0.1,3.2-0.3c0.6-0.3,1.1-0.7,1.5-1.2c0.7-0.8,1.4-1.9,1.4-3C105.6,19.8,105.3,20.2,104.9,20.6z M91.1,16.5
		c0-0.8,0.2-1.6,0.6-2.3c0.2-0.4,0.4-0.8,0.8-1.1c0.3-0.2,0.6-0.3,0.9-0.5c1,0.7,1.2,2.1,0.6,3.2c-0.4,0.8-0.8,1.6-1.5,2.2
		c-0.5,0.4-1,0.8-1.5,0.9C90.8,18.2,91,17.3,91.1,16.5z M100.3,15.3c0.3-1.2,0.6-2.5,1.3-3.5c0.2-0.3,0.6-0.5,1-0.4
		c0.3,0.2,0.6,0.4,0.8,0.6c0.3,0.6,0.4,1.3,0.1,1.9c-0.3,0.9-0.9,1.7-1.6,2.3c-0.5,0.5-1,0.9-1.6,1.3
		C100.2,16.8,100.1,16,100.3,15.3z"/>
	<path fill="#010202" d="M111.5,19c-0.1-0.4-0.4-0.8-0.7-1.1c-0.3-0.3-0.7-0.7-1.2-0.7c-0.7-0.1-1.4,0.2-2,0.7
		c-0.3,0.4-0.6,0.9-0.5,1.4c0.4-0.4,0.7-0.8,1.3-1c0.5-0.1,1,0.2,1.3,0.5c0.4,0.7,0.1,1.6-0.2,2.3c-0.4,1.2-1.5,1.8-2.4,2.6
		c-0.6,0.5-1.4,0.9-2.1,1.3c-0.5,0.3-1.1,0.5-1.7,0.8c-0.9,0.4-1.9,0.8-2.9,0.9c-0.7,0.2-1.4,0.2-2.1,0.5c-0.7,0.2-1.4,0.2-2.2,0.3
		c-1.4,0.2-2.7,0.1-4.1,0.1c-1.2,0-2.4,0.1-3.5-0.1c-1.2-0.2-2.4-0.2-3.6-0.6c-0.9-0.2-1.8-0.4-2.7-0.4c0.3-1,0.8-1.9,1-2.9
		c0.3-1,0.8-1.9,1.1-2.9c0.7-1.7,1.3-3.4,2-5.1c0.3-1,0.8-1.9,1.3-2.8c-0.5,0.1-0.9,0.4-1.4,0.6c-0.6,0.3-1.3,0.4-1.9,0.6
		c-1.1,0.3-2.2,0.3-3.3,0.5c-1,0-2.2-0.3-3.1,0.3c-0.9,0.5-1.3,1.6-1.3,2.6c0.1,0.4,0.3,0.8,0.5,1.2c0.2,0.4,0.6,0.6,1,0.8
		c0.5,0,1.1,0,1.5-0.3c0.4-0.3,0.7-0.8,0.9-1.3c0.2-0.5,0-1.1-0.3-1.5c1-0.1,1.9-0.4,2.8-0.7c-0.5,1.1-1.3,2.1-1.8,3.2
		c-0.5,0.9-0.9,1.9-1.3,2.9c-0.6,1.5-1,3.2-2,4.6c-0.1,0.2-0.3,0.4-0.5,0.4c-0.7,0.1-1.3-0.4-1.6-1c-0.3-1-0.3-2-0.3-3
		c0-1.1,0.1-2.2,0.2-3.3c0.1-1.3-0.1-2.7,0.3-4c-0.5,0.1-1.1,0.2-1.6,0.3c-0.8,0.2-1.6,0.2-2.3,0.5c-0.1,0.3-0.1,0.6-0.2,0.9
		c-1.3-0.6-2.9-0.6-4.2,0.2c-0.6,0.5-1.1,1-1.5,1.6c-0.5,0.7-0.7,1.5-1,2.2c-0.2,0.7-0.3,1.4-0.5,2c-0.2,1.2-0.1,2.3-0.3,3.5
		c-0.1,1,0.1,1.9-0.1,2.9c-0.4,0.2-1.2,0.4-1.4-0.2c-0.4-1.5-0.3-3-0.4-4.5c0-1.2,0-2.4-0.1-3.6c-0.1-0.7-0.4-1.3-0.9-1.8
		c-0.5-0.5-1.2-1-2-1c-1.1-0.1-2.2,0.5-3,1.2c-0.5,0.4-1,0.8-1.4,1.3c-0.3-0.3-0.5-0.7-0.9-0.9c-0.5-0.2-1.1-0.1-1.6-0.1
		c-0.3,0-0.6,0.1-0.9,0.2c-0.9,0.3-1.8,0.7-2.6,1.3c0-0.4,0.1-0.8,0.1-1.2c-0.3,0.1-0.7,0.2-1,0.3c-1.1,0.2-2.1,0.7-3.2,0.9
		c-0.1,0.6-0.1,1.2-0.1,1.8c-0.6,0.2-1.2,0.4-1.8,0.6c-0.2-1.2-0.1-2.5-0.1-3.7c0-1.2,0.1-2.4,0.1-3.5c0-0.8-0.1-1.6,0-2.4
		c0-1.6,0-3.3,0.2-4.9c0.2-1.3,0-2.6,0.1-3.9C43.5,5,43.2,5,42.8,5c-1.1-0.2-2.3,0-3.4,0.3c-0.8,0.3-1.7,0.4-2.4,1
		c-0.7,0.5-1.5,0.9-2.1,1.5c-0.3,0.3-0.6,0.7-0.9,1.1c-1.4,1.4-2.4,3.1-3.5,4.7c-0.6,0.9-1,1.8-1.5,2.7C27.8,18,27.1,20,26.4,22
		c-1.1,0-2.2,0-3.3,0.1c-1,0.2-2,0.1-3,0.3c-0.7,0.1-1.4,0.1-2,0.3c-1.2,0.3-2.6,0.5-3.6,1.2c-0.8,0.5-1.5,1.1-2,1.9
		c-0.3,1.1-0.4,2.3,0.2,3.3c0.6,0.7,1.3,1.3,2.2,1.5c1,0.4,2.1,0.3,3.2,0.4c0.7,0,1.4-0.1,2.1-0.1c1.2,0,2.3-0.5,3.5-0.6
		c-0.9,3.6-1.7,7.2-2.2,10.8c-0.2,1.5-0.1,3,0.2,4.5c0.4,1.1,0.9,2.2,1.7,3.1c0.4,0.5,1.1,0.7,1.7,1c0.6,0.3,1.3,0.2,2,0.4
		c0.5,0,1,0,1.5,0c0.1-0.1,0.1-0.2,0.2-0.3c-0.1-0.5-0.4-0.9-0.6-1.3c-0.2-0.6-0.3-1.2-0.5-1.8c-0.3-1-0.4-2-0.5-3.1
		c-0.1-1.7,0.1-3.4,0.2-5.1c0.1-2.1,0.6-4.2,0.8-6.3c0.2-1,0.3-2,0.7-3c1.8-0.3,3.6-1,5.3-1.6c0.8-0.3,1.5-0.7,2.2-1
		c0,1.2-0.2,2.3-0.2,3.5c0,1.9,0,3.8,0,5.7c0,0.9-0.2,1.7-0.1,2.5c0,1.5,0,3.1-0.1,4.6c0.4,0,0.8-0.1,1.2-0.3
		c0.9-0.3,1.8-0.4,2.7-0.6c1-0.1,2-0.5,3-0.6c-0.1-0.9-0.1-1.7-0.1-2.6c0-0.6-0.1-1.1,0-1.7c0.1-1.2,0-2.4,0.1-3.7
		c0-1.4,0.2-2.8,0.3-4.2c0.2-1.3,0.1-2.6,0.4-3.9c0.6-0.2,1.1-0.4,1.6-0.7c0,1.1,0,2.2,0,3.3c0,1.3,0,2.7,0,4c-0.1,1-0.1,2-0.2,3
		c0,0.2,0,0.4,0.1,0.5c0.9-0.2,1.8-0.5,2.8-0.7c0.3-0.1,0.5-0.2,0.7-0.3c0.3-0.6,0.1-1.3,0.2-1.9c0.1-0.9,0-1.9,0-2.8
		c0-0.7,0-1.4,0-2.1c0-1.1,0.2-2.3,0.3-3.4c0.1-0.8,0.7-1.7,1.6-1.9c0.3-0.1,0.6-0.2,0.8,0c0.4,0.4,0.5,1,0.6,1.6
		c0.1,1.2,0.1,2.4,0.2,3.7c0,2,0.1,4-0.2,6c0.7-0.3,1.5-0.6,2.3-0.7c0.6-0.1,1.1-0.3,1.7-0.3c0-1.2,0.2-2.4,0.3-3.6
		c0.1-1,0.1-2,0.1-3c0-0.8,0.1-1.6,0-2.4c0-0.6-0.1-1.3-0.4-1.8c0.3-0.3,0.6-0.7,1.1-0.7c0.7-0.2,1.3,0.3,1.5,0.9
		c0.3,1.2,0.1,2.4,0.2,3.6c0,0.9,0.2,1.9,0.2,2.8c0,0.9,0,1.9,0.5,2.7c0.2,0.3,0.6,0.4,0.9,0.5c0.5,0.2,1.2,0.2,1.7,0.2
		c0.7-0.1,1.4-0.3,1.9-0.8c0.4-0.5,0.9-0.9,1.3-1.3c0.3,0.6,0.9,1.1,1.5,1.3c0.7,0.2,1.4,0.2,2.1-0.1c1.3-0.5,2.4-1.4,3.3-2.6
		c0.3,0.6,0.8,1.1,1.5,1.2c1.1,0,2.1-0.3,3.1-0.7c-0.2,0.5-0.5,1-0.7,1.5c-0.1,0.1,0,0.3,0.1,0.3c0.7-0.5,1.3-1,2-1.4
		c1.5-0.9,3.4-1.2,5.1-0.8c0.9,0.2,1.7,0.5,2.6,0.6c1.8,0.4,3.6,0.7,5.4,0.8c1.1,0.1,2.1,0.3,3.2,0.3c1,0,2.1,0.1,3.1,0
		c1.1,0,2.3-0.2,3.4-0.5c0.6-0.2,1.3-0.4,1.9-0.6c0.5-0.1,1-0.4,1.5-0.6c1.1-0.4,2-1.1,3-1.6c1.6-0.9,2.7-2.5,3.5-4.1
		c0.3-0.6,0.4-1.2,0.6-1.8C111.9,20.4,111.7,19.7,111.5,19z M25.2,24.4c-0.5,1.1-0.8,2.3-1.1,3.5c-0.3,0.1-0.6,0.3-1,0.4
		c-2,0.4-4.1,0.6-6.1,0c-0.4-0.1-0.7-0.5-0.8-0.9c-0.1-0.4-0.2-0.7-0.1-1.1c0.3-0.8,1.1-1.4,1.9-1.8c1.4-0.7,3-0.8,4.5-1
		c1,0,2-0.1,3,0C25.5,23.8,25.4,24.1,25.2,24.4z M34.3,26.1c-1.1,0.4-2.2,0.6-3.3,0.9c-0.7,0.2-1.4,0.3-2.1,0.5
		c0.2-1.2,0.2-2.4,0.7-3.5c1,0,1.9,0.4,2.8,0.6c1.1,0.3,2.2,0.5,3.3,0.9C35.2,25.7,34.8,25.8,34.3,26.1z M36.7,17.6
		c0,1.7-0.1,3.5-0.3,5.2c-0.1,0.8,0,1.5-0.1,2.3c-0.7-0.2-1.3-0.5-2-0.8c-0.7-0.4-1.5-0.6-2.2-1c-0.7-0.3-1.5-0.5-2.3-0.6
		c0.1-0.7,0.4-1.3,0.5-2c0.5-1.6,1.1-3.3,1.8-4.8c0.6-1.2,1.2-2.5,2-3.5c0.9-1,1.6-2.2,2.8-2.9C37,12.1,36.8,14.9,36.7,17.6z
		 M72.5,22.5c0,0.7,0,1.4-0.2,2.1c-0.2,0.8-0.3,1.7-0.7,2.4c-0.5,1-2.2,1-2.7,0c-0.5-1.4-0.5-3-0.2-4.5c0.1-0.7,0.2-1.4,0.4-2.1
		c0.2-0.6,0.2-1.3,0.7-1.7c0.3-0.3,0.5-0.6,0.9-0.8c0.3-0.2,0.8-0.1,1.1,0.1c0.4,0.4,0.7,0.9,0.8,1.5C72.6,20.6,72.5,21.6,72.5,22.5
		z"/>
	<path fill="#010202" d="M74.5,35c0.9-0.4,1.9-0.5,2.9-0.6c0.7-0.1,1.5,0,2.2,0.2c1.7,0.4,3.5,0.8,5,1.8c0.8,0.5,1.5,1.1,2.2,1.8
		c0.6,0.5,1.1,1.2,1.4,1.9c0.6,1.2-0.1,2.7-1.2,3.3c-1.3,0.6-2.8,0.6-4-0.1c-1.1-0.7-1.6-1.9-2.3-3c-0.4-0.8-0.8-1.6-1.5-2.3
		c-1-1-2.2-1.9-3.5-2.5C75.5,35.2,75,35.2,74.5,35L74.5,35z"/>
	<path fill="#010202" d="M70.6,35.1c0.7,0.2,1.4,0.4,2,0.8c0.8,0.4,1.5,0.9,2.2,1.3c0.4,0.3,0.8,0.7,1.2,1c0.5,0.4,0.9,1,1.4,1.5
		c1.6,1.7,2.3,3.9,2.9,6.1c0.4,1.2,0.6,2.5,0.6,3.9c0,1.8-0.2,3.7-1.1,5.3c-0.3,0.5-0.6,1-1.1,1.4c-0.6,0.5-1.2,1-2,1.2
		c-1.1,0.1-2.2-0.2-3.1-0.8c-1-0.9-1.6-2.1-1.7-3.4c0-1,0-2,0.3-2.9c0.2-0.5,0.3-1.1,0.6-1.5c0.5-1.1,0.9-2.2,1.2-3.4
		c0.2-0.8,0.1-1.7,0.2-2.5c-0.1-1.7-0.5-3.4-1.3-4.9c-0.4-0.6-0.8-1.3-1.4-1.8C71.3,35.7,70.9,35.5,70.6,35.1L70.6,35.1z"/>
	<path fill="#010202" d="M49.2,36.5c0.3-0.2,0.6-0.5,1-0.6c-0.2,0.5-0.5,0.9-0.4,1.4c-0.3,1.7,0,3.4-0.2,5.1c0,1.7,0.2,3.4,0.1,5.1
		c1.4,0.5,2.8,0.9,4.2,1.4c0.7,0.1,1.5,0,2.1-0.4c0.3-0.2,0.3-0.6,0.6-0.7c0,0.6-0.2,1.3-0.6,1.8c-0.4,0.6-1.1,0.7-1.7,0.8
		c-1.2,0.2-2.2-0.4-3.3-0.9c-0.9-0.3-1.8-0.9-2.8-0.9c-0.4-0.1-0.8,0.1-1.1,0.2c0.1-0.5,0.3-0.9,0.4-1.4c0.2-1,0.4-2,0.3-3
		c0-1.1-0.1-2.1-0.2-3.2c-0.1-1,0-2.1-0.1-3.1c-0.9,0.6-1.5,1.5-1.5,2.6c0.1,0.5,0.2,1.1,0.7,1.4c-0.7,0.4-1.5,0-1.9-0.6
		c-0.3-0.6-0.3-1.4-0.1-2c0.2-0.6,0.7-1,1.1-1.4c0.6-0.4,1.2-0.6,1.9-0.9C48.1,37.1,48.7,36.9,49.2,36.5L49.2,36.5z"/>
	<path fill="#010202" d="M69.8,39.5c-0.2-0.4-0.5-0.8-0.8-1.1c-0.2-0.2-0.5-0.4-0.6-0.8c-0.1-0.5,0-0.9,0-1.4
		c-0.6,0.6-1.4,1.1-2.3,1.1c-0.1,0.6-0.3,1.2-0.7,1.6c-0.3,0.4-0.7,0.6-1.1,0.8c0.1-0.7,0-1.5-0.4-2.1c-0.2-0.4-0.7-0.5-1.1-0.4
		c-0.6,0.2-1.3,0.3-1.9,0.7c0-0.7,0.1-1.4,0.1-2.1c-0.1-0.5,0-1-0.1-1.6c-0.4,0.3-0.8,0.6-1.2,0.8c-0.2,0.1-0.5,0.2-0.6,0.5
		c-0.2,0.8,0,1.6,0,2.3c-0.2,1.9,0.1,3.8-0.1,5.7c-0.1,0.4-0.2,0.9-0.6,1.1c-0.3,0.2-0.8,0.1-1-0.3c-0.4-0.5-0.3-1.2-0.2-1.8
		c0-0.9,0.1-1.9,0.1-2.8c0-0.5,0.2-1,0.3-1.5c-0.8,0.3-1.7,0.6-2.6,0.6c0,0.1,0,0.2,0,0.3c-0.4-0.1-0.8-0.3-1.2-0.1
		c-1.2,0.5-1.9,1.7-2.4,2.8c-0.5,1.3-0.5,2.7,0,4c0.2,0.5,0.4,1.1,1,1.3c0.6,0.3,1.3,0,1.9-0.2c0.5-0.2,0.8-0.6,1.1-1
		c0.3,0.2,0.5,0.4,0.8,0.4c1.1,0.2,2.2-0.2,2.9-1c0.4,0.6,1.1,0.6,1.7,0.5c0.8-0.2,1.6-0.4,2.2-0.9c0.8-0.7,1.5-1.7,1.5-2.8
		c0-0.3-0.1-0.7,0-1c0.3-0.1,0.6-0.2,0.9-0.3c0.7-0.5,1.2-1.3,1.5-2.1c0.4,0.6,0.7,1.2,0.9,1.9c0.2,0.5,0.4,1,0.5,1.5
		c-0.1,0.6-0.7,1.3-1.4,1.2c-0.2,0-0.3-0.3-0.5-0.4c0.5-0.2,1.1-0.5,1.2-1.2c0.1-0.4-0.1-1.1-0.7-1.1c-1.1,0.2-1.9,1.5-1.4,2.6
		c0.4,0.8,1.3,1.5,2.2,1.2c0.8-0.3,1.7-0.6,2.1-1.4C70.3,42.1,70.2,40.7,69.8,39.5z M55,44.3c-0.1,0.5-0.5,1-1,1.3
		c-0.3,0.2-0.8,0.1-0.9-0.3c-0.3-0.7-0.4-1.5-0.3-2.3c0.1-0.6,0.1-1.3,0.5-1.9c0.2-0.3,0.5-0.6,0.8-0.7c0.2,0,0.7-0.2,0.7,0.1
		C55.2,41.8,55.3,43.1,55,44.3z M62.9,41.8c-0.1,0.7-0.1,1.5-0.6,2.1c-0.2,0.3-0.6,0.4-1,0.4c-0.2-0.1-0.4-0.3-0.4-0.6
		c0-0.9,0.1-1.8,0.1-2.7c0-0.5,0-1,0.1-1.6c0.1-0.3,0.3-0.4,0.6-0.5c0.3-0.1,0.7,0.1,0.9,0.2C62.9,40.1,62.9,41,62.9,41.8z"/>
</g>
</svg>
